<svg xmlns="http://www.w3.org/2000/svg" version="1.1" viewBox="-5.0 -10.0 110.0 135.0">
 <path d="m50 75h9.375c0 5.1562-4.2188 9.375-9.375 9.375h-34.375c-5.1562 0-9.375-4.2188-9.375-9.375v-34.375c0-5.1562 4.2188-9.375 9.375-9.375h18.75v28.125c0 8.625 7 15.625 15.625 15.625zm34.375-59.375h-34.375c-5.1562 0-9.375 4.2188-9.375 9.375v34.375c0 5.1562 4.2188 9.375 9.375 9.375h34.375c5.1562 0 9.375-4.2188 9.375-9.375v-34.375c0-5.1562-4.2188-9.375-9.375-9.375z"/>
<text x="0.0" y="117.5" font-size="5.0" font-weight="bold" font-family="Arbeit Regular, Helvetica, Arial-Unicode, Arial, Sans-serif" fill="#000000">Created by Thea Graph</text><text x="0.0" y="122.5" font-size="5.0" font-weight="bold" font-family="Arbeit Regular, Helvetica, Arial-Unicode, Arial, Sans-serif" fill="#000000">from Noun Project</text></svg>